<?xml version="1.0" encoding="utf-8" standalone="no"?>
<!DOCTYPE svg PUBLIC "-//W3C//DTD SVG 1.1//EN"
  "http://www.w3.org/Graphics/SVG/1.1/DTD/svg11.dtd">
<!-- Created with matplotlib (http://matplotlib.org/) -->
<svg height="138pt" version="1.1" viewBox="0 0 301 138" width="301pt" xmlns="http://www.w3.org/2000/svg" xmlns:xlink="http://www.w3.org/1999/xlink">
 <defs>
  <style type="text/css">
*{stroke-linecap:butt;stroke-linejoin:round;}
  </style>
 </defs>
 <g id="figure_1">
  <g id="patch_1">
   <path d="
M0 138.24
L301.32 138.24
L301.32 2.84217e-14
L0 2.84217e-14
z
" style="fill:#ffffff;"/>
  </g>
  <g id="axes_1">
   <g id="patch_2">
    <path d="
M0 138.24
L301.32 138.24
L301.32 5.68434e-14
L0 5.68434e-14
z
" style="fill:#ffffff;"/>
   </g>
   <g id="patch_3">
    <path d="
M301.32 69.12
L295.294 71.424
L297.102 69.1776
L1.42109e-14 69.1776
L1.42109e-14 69.0624
L297.102 69.0624
L295.294 66.816
z
" style="fill:#777777;stroke:#777777;"/>
   </g>
   <g id="patch_4">
    <path d="
M44.64 5.68434e-14
L46.944 6.0264
L44.6958 4.21848
L44.6958 138.24
L44.5842 138.24
L44.5842 4.21848
L42.336 6.0264
z
" style="fill:#777777;stroke:#777777;"/>
   </g>
   <g id="line2d_1">
    <path clip-path="url(#p2606c9d27f)" d="
M-0.0693023 69.12
L44.6981 69.12
L47.4888 48.1904
L49.0005 38.4987
L50.1633 32.3666
L51.0935 28.4693
L51.9074 25.8784
L52.6051 24.306
L53.1865 23.47
L53.6516 23.1179
L54.1167 23.0496
L54.5819 23.2657
L55.047 23.7647
L55.6284 24.7816
L56.326 26.565
L57.14 29.3897
L58.0702 33.5327
L59.1167 39.2361
L60.3958 47.4519
L62.14 60.1968
L66.5586 93.2692
L67.954 101.767
L69.1167 107.487
L70.047 111.008
L70.8609 113.245
L71.5586 114.501
L72.14 115.066
L72.6051 115.2
L73.0702 115.049
L73.5353 114.615
L74.1167 113.678
L74.6981 112.311
L75.3958 110.123
L76.2098 106.854
L77.2563 101.614
L78.4191 94.6114
L79.9307 84.0876
L82.7214 62.6599
L84.9307 46.4678
L86.326 37.7221
L87.4888 31.7428
L88.4191 27.9854
L89.233 25.5269
L89.9307 24.0732
L90.5121 23.3388
L90.9772 23.0688
L91.4423 23.083
L91.9074 23.3814
L92.3726 23.962
L92.954 25.0791
L93.6516 26.9788
L94.4656 29.9319
L95.3958 34.209
L96.5586 40.751
L97.954 50.0166
L99.9307 64.8174
L103.419 91.0433
L104.814 99.9033
L105.977 106.004
L106.907 109.873
L107.721 112.436
L108.419 113.984
L109 114.799
L109.466 115.134
L109.931 115.185
L110.396 114.952
L110.861 114.436
L111.442 113.399
L112.14 111.591
L112.954 108.74
L113.884 104.569
L114.931 98.8382
L116.21 90.5961
L118.07 76.9394
L122.256 45.5594
L123.652 36.9617
L124.814 31.1385
L125.745 27.5229
L126.559 25.1979
L127.256 23.8638
L127.838 23.2313
L128.303 23.0436
L128.768 23.1403
L129.233 23.5208
L129.698 24.1827
L130.28 25.3994
L130.977 27.4145
L131.791 30.4945
L132.721 34.9034
L133.884 41.5857
L135.28 50.9771
L137.373 66.7674
L140.512 90.3715
L142.024 100.011
L143.187 106.091
L144.117 109.94
L144.931 112.485
L145.628 114.017
L146.21 114.818
L146.675 115.142
L147.14 115.182
L147.605 114.937
L148.07 114.41
L148.652 113.358
L149.349 111.535
L150.163 108.666
L151.093 104.476
L152.14 98.7273
L153.535 89.6615
L155.396 75.9026
L159.349 46.216
L160.745 37.5107
L161.907 31.5742
L162.838 27.8557
L163.652 25.4338
L164.349 24.0131
L164.931 23.3068
L165.396 23.0595
L165.861 23.0965
L166.326 23.4175
L166.791 24.0205
L167.373 25.1652
L168.07 27.0968
L168.884 30.0851
L169.814 34.3987
L170.977 40.9798
L172.373 50.2806
L174.466 66.0084
L177.721 90.4999
L179.233 100.118
L180.396 106.177
L181.326 110.007
L182.14 112.534
L182.838 114.049
L183.419 114.836
L183.884 115.149
L184.349 115.177
L184.814 114.921
L185.28 114.383
L185.861 113.318
L186.559 111.478
L187.373 108.591
L188.303 104.383
L189.466 97.9151
L190.861 88.7163
L192.838 73.9631
L196.442 46.8789
L197.838 38.0682
L199 32.0201
L199.931 28.1997
L200.745 25.6817
L201.442 24.1747
L202.024 23.3947
L202.489 23.0878
L202.954 23.0651
L203.419 23.3266
L203.884 23.8707
L204.466 24.9429
L205.163 26.7906
L205.977 29.6863
L206.907 33.9036
L208.07 40.3815
L209.466 49.5893
L211.442 64.3489
L215.047 91.4245
L216.442 100.225
L217.605 106.263
L218.535 110.074
L219.349 112.582
L220.047 114.081
L220.628 114.854
L221.093 115.155
L221.559 115.172
L222.024 114.905
L222.489 114.356
L223.07 113.276
L223.768 111.421
L224.582 108.516
L225.512 104.29
L226.675 97.8019
L228.07 88.5851
L230.047 73.819
L233.535 47.5479
L235.047 37.9614
L236.21 31.9344
L237.14 28.1333
L237.954 25.6335
L238.652 24.143
L239.233 23.377
L239.698 23.0815
L240.163 23.0701
L240.628 23.3429
L241.093 23.8983
L241.675 24.9843
L242.373 26.848
L243.187 29.7614
L244.117 33.9971
L245.28 40.4949
L246.675 49.7205
L248.652 64.493
L252.14 90.7561
L253.652 100.332
L254.814 106.348
L255.745 110.14
L256.559 112.63
L257.256 114.113
L257.838 114.872
L258.303 115.162
L258.768 115.167
L259.233 114.889
L259.698 114.328
L260.28 113.235
L260.977 111.363
L261.791 108.441
L262.721 104.196
L263.884 97.6884
L265.28 88.4538
L267.256 73.6749
L270.745 47.42
L272.256 37.8548
L273.419 31.849
L274.349 28.0674
L275.163 25.5859
L275.861 24.1117
L276.442 23.3597
L276.907 23.0756
L277.14 23.04
L277.14 23.04" style="fill:none;stroke:#3366cc;stroke-linecap:square;stroke-width:2;"/>
   </g>
   <g id="matplotlib.axis_1"/>
   <g id="matplotlib.axis_2"/>
  </g>
 </g>
 <defs>
  <clipPath id="p2606c9d27f">
   <rect height="138.24" width="301.32" x="0.0" y="5.68434188608e-14"/>
  </clipPath>
 </defs>
</svg>
