<?xml version="1.0" encoding="UTF-8" standalone="no"?>
<!DOCTYPE svg PUBLIC "-//W3C//DTD SVG 1.1//EN"
 "http://www.w3.org/Graphics/SVG/1.1/DTD/svg11.dtd">
<!-- Generated by graphviz version 2.38.0 (20140413.2041)
 -->
<!-- Title: %3 Pages: 1 -->
<svg width="838pt" height="566pt"
 viewBox="0.00 0.00 837.70 566.15" xmlns="http://www.w3.org/2000/svg" xmlns:xlink="http://www.w3.org/1999/xlink">
<g id="graph0" class="graph" transform="scale(1 1) rotate(0) translate(4 562.145)">
<title>%3</title>
<polygon fill="white" stroke="none" points="-4,4 -4,-562.145 833.701,-562.145 833.701,4 -4,4"/>
<!-- 9117162082977442914 -->
<g id="node1" class="node"><title>9117162082977442914</title>
<polygon fill="none" stroke="black" points="367.441,-379.073 261.875,-379.073 261.875,-343.073 367.441,-343.073 367.441,-379.073"/>
<text text-anchor="middle" x="314.658" y="-356.873" font-family="Times,serif" font-size="14.00">(&#39;array&#45;#0&#39;, 1, 0)</text>
</g>
<!-- &#45;6900377261023204247 -->
<g id="node20" class="node"><title>&#45;6900377261023204247</title>
<ellipse fill="none" stroke="black" cx="425.453" cy="-338.073" rx="21.8081" ry="21.8081"/>
<text text-anchor="middle" x="425.453" y="-333.873" font-family="Times,serif" font-size="14.00">_fit</text>
</g>
<!-- 9117162082977442914&#45;&gt;&#45;6900377261023204247 -->
<g id="edge20" class="edge"><title>9117162082977442914&#45;&gt;&#45;6900377261023204247</title>
<path fill="none" stroke="black" d="M367.507,-350.112C376.588,-348.192 385.765,-346.252 394.021,-344.506"/>
<polygon fill="black" stroke="black" points="394.85,-347.908 403.91,-342.416 393.402,-341.06 394.85,-347.908"/>
</g>
<!-- 5886541450004956945 -->
<g id="node2" class="node"><title>5886541450004956945</title>
<ellipse fill="none" stroke="black" cx="186.694" cy="-327.073" rx="39.1454" ry="39.1454"/>
<text text-anchor="middle" x="186.694" y="-322.873" font-family="Times,serif" font-size="14.00">getarray</text>
</g>
<!-- 5886541450004956945&#45;&gt;9117162082977442914 -->
<g id="edge1" class="edge"><title>5886541450004956945&#45;&gt;9117162082977442914</title>
<path fill="none" stroke="black" d="M224.806,-337.09C233.226,-339.363 242.394,-341.837 251.537,-344.305"/>
<polygon fill="black" stroke="black" points="250.845,-347.744 261.412,-346.97 252.669,-340.985 250.845,-347.744"/>
</g>
<!-- 3641472394376837671 -->
<g id="node3" class="node"><title>3641472394376837671</title>
<polygon fill="none" stroke="black" points="111.432,-153.073 0.188812,-153.073 0.188812,-117.073 111.432,-117.073 111.432,-153.073"/>
<text text-anchor="middle" x="55.8105" y="-130.873" font-family="Times,serif" font-size="14.00">array&#45;original&#45;#0</text>
</g>
<!-- 3641472394376837671&#45;&gt;5886541450004956945 -->
<g id="edge2" class="edge"><title>3641472394376837671&#45;&gt;5886541450004956945</title>
<path fill="none" stroke="black" d="M67.39,-153.212C83.7393,-180.919 116.515,-235.187 147.621,-279.073 149.942,-282.347 152.406,-285.699 154.92,-289.035"/>
<polygon fill="black" stroke="black" points="152.354,-291.44 161.221,-297.239 157.906,-287.176 152.354,-291.44"/>
</g>
<!-- 3459600442441635170 -->
<g id="node12" class="node"><title>3459600442441635170</title>
<ellipse fill="none" stroke="black" cx="186.694" cy="-135.073" rx="39.1454" ry="39.1454"/>
<text text-anchor="middle" x="186.694" y="-130.873" font-family="Times,serif" font-size="14.00">getarray</text>
</g>
<!-- 3641472394376837671&#45;&gt;3459600442441635170 -->
<g id="edge10" class="edge"><title>3641472394376837671&#45;&gt;3459600442441635170</title>
<path fill="none" stroke="black" d="M111.469,-135.073C120.053,-135.073 128.875,-135.073 137.305,-135.073"/>
<polygon fill="black" stroke="black" points="137.352,-138.573 147.352,-135.073 137.352,-131.573 137.352,-138.573"/>
</g>
<!-- &#45;901722574920021824 -->
<g id="node22" class="node"><title>&#45;901722574920021824</title>
<ellipse fill="none" stroke="black" cx="186.694" cy="-39.0726" rx="39.1454" ry="39.1454"/>
<text text-anchor="middle" x="186.694" y="-34.8726" font-family="Times,serif" font-size="14.00">getarray</text>
</g>
<!-- 3641472394376837671&#45;&gt;&#45;901722574920021824 -->
<g id="edge24" class="edge"><title>3641472394376837671&#45;&gt;&#45;901722574920021824</title>
<path fill="none" stroke="black" d="M81.0525,-117.016C99.4633,-103.302 125.163,-84.1597 146.485,-68.2774"/>
<polygon fill="black" stroke="black" points="148.789,-70.9258 154.718,-62.1453 144.607,-65.312 148.789,-70.9258"/>
</g>
<!-- &#45;8816983995706911837 -->
<g id="node4" class="node"><title>&#45;8816983995706911837</title>
<polygon fill="none" stroke="black" points="557.918,-271.073 483.503,-271.073 483.503,-235.073 557.918,-235.073 557.918,-271.073"/>
<text text-anchor="middle" x="520.711" y="-248.873" font-family="Times,serif" font-size="14.00">(&#39;fit&#45;#1&#39;, 2)</text>
</g>
<!-- &#45;1923155886244659043 -->
<g id="node15" class="node"><title>&#45;1923155886244659043</title>
<ellipse fill="none" stroke="black" cx="666.883" cy="-253.073" rx="72.6376" ry="72.6376"/>
<text text-anchor="middle" x="666.883" y="-248.873" font-family="Times,serif" font-size="14.00">merge_estimators</text>
</g>
<!-- &#45;8816983995706911837&#45;&gt;&#45;1923155886244659043 -->
<g id="edge15" class="edge"><title>&#45;8816983995706911837&#45;&gt;&#45;1923155886244659043</title>
<path fill="none" stroke="black" d="M558.091,-253.073C566.031,-253.073 574.744,-253.073 583.668,-253.073"/>
<polygon fill="black" stroke="black" points="583.803,-256.573 593.803,-253.073 583.803,-249.573 583.803,-256.573"/>
</g>
<!-- 5755629078849341544 -->
<g id="node5" class="node"><title>5755629078849341544</title>
<ellipse fill="none" stroke="black" cx="425.453" cy="-253.073" rx="21.8081" ry="21.8081"/>
<text text-anchor="middle" x="425.453" y="-248.873" font-family="Times,serif" font-size="14.00">_fit</text>
</g>
<!-- 5755629078849341544&#45;&gt;&#45;8816983995706911837 -->
<g id="edge3" class="edge"><title>5755629078849341544&#45;&gt;&#45;8816983995706911837</title>
<path fill="none" stroke="black" d="M447.615,-253.073C455.268,-253.073 464.241,-253.073 473.208,-253.073"/>
<polygon fill="black" stroke="black" points="473.259,-256.573 483.259,-253.073 473.259,-249.573 473.259,-256.573"/>
</g>
<!-- 9117163344174441737 -->
<g id="node6" class="node"><title>9117163344174441737</title>
<polygon fill="none" stroke="black" points="367.441,-217.073 261.875,-217.073 261.875,-181.073 367.441,-181.073 367.441,-217.073"/>
<text text-anchor="middle" x="314.658" y="-194.873" font-family="Times,serif" font-size="14.00">(&#39;array&#45;#0&#39;, 2, 0)</text>
</g>
<!-- 9117163344174441737&#45;&gt;5755629078849341544 -->
<g id="edge4" class="edge"><title>9117163344174441737&#45;&gt;5755629078849341544</title>
<path fill="none" stroke="black" d="M352.188,-217.204C366.593,-224.354 382.88,-232.438 396.339,-239.118"/>
<polygon fill="black" stroke="black" points="395.06,-242.391 405.574,-243.702 398.172,-236.121 395.06,-242.391"/>
</g>
<!-- &#45;6440337684502841614 -->
<g id="node7" class="node"><title>&#45;6440337684502841614</title>
<polygon fill="none" stroke="black" points="358.145,-325.073 271.171,-325.073 271.171,-289.073 358.145,-289.073 358.145,-325.073"/>
<text text-anchor="middle" x="314.658" y="-302.873" font-family="Times,serif" font-size="14.00">estimator&#45;#2</text>
</g>
<!-- &#45;6440337684502841614&#45;&gt;5755629078849341544 -->
<g id="edge5" class="edge"><title>&#45;6440337684502841614&#45;&gt;5755629078849341544</title>
<path fill="none" stroke="black" d="M352.188,-288.941C366.593,-281.791 382.88,-273.708 396.339,-267.027"/>
<polygon fill="black" stroke="black" points="398.172,-270.025 405.574,-262.444 395.06,-263.754 398.172,-270.025"/>
</g>
<!-- &#45;6440337684502841614&#45;&gt;&#45;6900377261023204247 -->
<g id="edge21" class="edge"><title>&#45;6440337684502841614&#45;&gt;&#45;6900377261023204247</title>
<path fill="none" stroke="black" d="M358.033,-319.147C370.184,-322.609 383.177,-326.311 394.42,-329.515"/>
<polygon fill="black" stroke="black" points="393.603,-332.921 404.179,-332.296 395.521,-326.189 393.603,-332.921"/>
</g>
<!-- 4957002577713076494 -->
<g id="node23" class="node"><title>4957002577713076494</title>
<ellipse fill="none" stroke="black" cx="425.453" cy="-168.073" rx="21.8081" ry="21.8081"/>
<text text-anchor="middle" x="425.453" y="-163.873" font-family="Times,serif" font-size="14.00">_fit</text>
</g>
<!-- &#45;6440337684502841614&#45;&gt;4957002577713076494 -->
<g id="edge27" class="edge"><title>&#45;6440337684502841614&#45;&gt;4957002577713076494</title>
<path fill="none" stroke="black" d="M356.749,-288.9C360.645,-286.259 364.334,-283.32 367.55,-280.073 379.959,-267.542 399.398,-226.148 412.034,-197.358"/>
<polygon fill="black" stroke="black" points="415.265,-198.704 416.038,-188.137 408.844,-195.916 415.265,-198.704"/>
</g>
<!-- &#45;5253868055790878833 -->
<g id="node8" class="node"><title>&#45;5253868055790878833</title>
<polygon fill="none" stroke="black" points="360.441,-271.073 268.874,-271.073 268.874,-235.073 360.441,-235.073 360.441,-271.073"/>
<text text-anchor="middle" x="314.658" y="-248.873" font-family="Times,serif" font-size="14.00">(&#39;array&#45;#3&#39;, 2)</text>
</g>
<!-- &#45;5253868055790878833&#45;&gt;5755629078849341544 -->
<g id="edge6" class="edge"><title>&#45;5253868055790878833&#45;&gt;5755629078849341544</title>
<path fill="none" stroke="black" d="M360.537,-253.073C371.572,-253.073 383.145,-253.073 393.365,-253.073"/>
<polygon fill="black" stroke="black" points="393.446,-256.573 403.446,-253.073 393.446,-249.573 393.446,-256.573"/>
</g>
<!-- &#45;5253868055787631258 -->
<g id="node9" class="node"><title>&#45;5253868055787631258</title>
<polygon fill="none" stroke="black" points="360.441,-502.073 268.874,-502.073 268.874,-466.073 360.441,-466.073 360.441,-502.073"/>
<text text-anchor="middle" x="314.658" y="-479.873" font-family="Times,serif" font-size="14.00">(&#39;array&#45;#3&#39;, 1)</text>
</g>
<!-- &#45;5253868055787631258&#45;&gt;&#45;6900377261023204247 -->
<g id="edge22" class="edge"><title>&#45;5253868055787631258&#45;&gt;&#45;6900377261023204247</title>
<path fill="none" stroke="black" d="M329.217,-465.877C348.399,-440.135 383.548,-392.966 405.362,-363.693"/>
<polygon fill="black" stroke="black" points="408.235,-365.695 411.404,-355.585 402.622,-361.512 408.235,-365.695"/>
</g>
<!-- 4434922648978489965 -->
<g id="node10" class="node"><title>4434922648978489965</title>
<ellipse fill="none" stroke="black" cx="186.694" cy="-519.073" rx="39.1454" ry="39.1454"/>
<text text-anchor="middle" x="186.694" y="-514.873" font-family="Times,serif" font-size="14.00">getarray</text>
</g>
<!-- 4434922648978489965&#45;&gt;&#45;5253868055787631258 -->
<g id="edge7" class="edge"><title>4434922648978489965&#45;&gt;&#45;5253868055787631258</title>
<path fill="none" stroke="black" d="M224.466,-508.855C235.246,-505.86 247.271,-502.519 258.915,-499.283"/>
<polygon fill="black" stroke="black" points="259.872,-502.65 268.57,-496.601 257.998,-495.906 259.872,-502.65"/>
</g>
<!-- &#45;6096113946391422531 -->
<g id="node11" class="node"><title>&#45;6096113946391422531</title>
<polygon fill="none" stroke="black" points="111.432,-441.073 0.188812,-441.073 0.188812,-405.073 111.432,-405.073 111.432,-441.073"/>
<text text-anchor="middle" x="55.8105" y="-418.873" font-family="Times,serif" font-size="14.00">array&#45;original&#45;#3</text>
</g>
<!-- &#45;6096113946391422531&#45;&gt;4434922648978489965 -->
<g id="edge8" class="edge"><title>&#45;6096113946391422531&#45;&gt;4434922648978489965</title>
<path fill="none" stroke="black" d="M81.0525,-441.129C99.4633,-454.843 125.163,-473.986 146.485,-489.868"/>
<polygon fill="black" stroke="black" points="144.607,-492.833 154.718,-496 148.789,-487.219 144.607,-492.833"/>
</g>
<!-- &#45;5471802076868658324 -->
<g id="node13" class="node"><title>&#45;5471802076868658324</title>
<ellipse fill="none" stroke="black" cx="186.694" cy="-423.073" rx="39.1454" ry="39.1454"/>
<text text-anchor="middle" x="186.694" y="-418.873" font-family="Times,serif" font-size="14.00">getarray</text>
</g>
<!-- &#45;6096113946391422531&#45;&gt;&#45;5471802076868658324 -->
<g id="edge12" class="edge"><title>&#45;6096113946391422531&#45;&gt;&#45;5471802076868658324</title>
<path fill="none" stroke="black" d="M111.469,-423.073C120.053,-423.073 128.875,-423.073 137.305,-423.073"/>
<polygon fill="black" stroke="black" points="137.352,-426.573 147.352,-423.073 137.352,-419.573 137.352,-426.573"/>
</g>
<!-- 9108544290521191842 -->
<g id="node19" class="node"><title>9108544290521191842</title>
<ellipse fill="none" stroke="black" cx="186.694" cy="-231.073" rx="39.1454" ry="39.1454"/>
<text text-anchor="middle" x="186.694" y="-226.873" font-family="Times,serif" font-size="14.00">getarray</text>
</g>
<!-- &#45;6096113946391422531&#45;&gt;9108544290521191842 -->
<g id="edge18" class="edge"><title>&#45;6096113946391422531&#45;&gt;9108544290521191842</title>
<path fill="none" stroke="black" d="M67.39,-404.933C83.7393,-377.226 116.515,-322.959 147.621,-279.073 149.942,-275.798 152.406,-272.446 154.92,-269.11"/>
<polygon fill="black" stroke="black" points="157.906,-270.969 161.221,-260.906 152.354,-266.705 157.906,-270.969"/>
</g>
<!-- 3459600442441635170&#45;&gt;9117163344174441737 -->
<g id="edge9" class="edge"><title>3459600442441635170&#45;&gt;9117163344174441737</title>
<path fill="none" stroke="black" d="M221.781,-152.392C236.399,-159.819 253.668,-168.593 269.266,-176.518"/>
<polygon fill="black" stroke="black" points="267.723,-179.66 278.224,-181.069 270.894,-173.419 267.723,-179.66"/>
</g>
<!-- &#45;5471802076868658324&#45;&gt;&#45;5253868055790878833 -->
<g id="edge11" class="edge"><title>&#45;5471802076868658324&#45;&gt;&#45;5253868055790878833</title>
<path fill="none" stroke="black" d="M212.961,-394.13C217.578,-388.07 222.09,-381.547 225.766,-375.073 248.06,-335.808 231.769,-313.82 261.766,-280.073 262.508,-279.238 263.283,-278.425 264.085,-277.633"/>
<polygon fill="black" stroke="black" points="266.504,-280.173 271.946,-271.083 262.023,-274.796 266.504,-280.173"/>
</g>
<!-- 3021420505797634582 -->
<g id="node14" class="node"><title>3021420505797634582</title>
<polygon fill="none" stroke="black" points="829.701,-271.073 775.701,-271.073 775.701,-235.073 829.701,-235.073 829.701,-271.073"/>
<text text-anchor="middle" x="802.701" y="-248.873" font-family="Times,serif" font-size="14.00">fit&#45;#1</text>
</g>
<!-- &#45;1923155886244659043&#45;&gt;3021420505797634582 -->
<g id="edge13" class="edge"><title>&#45;1923155886244659043&#45;&gt;3021420505797634582</title>
<path fill="none" stroke="black" d="M739.884,-253.073C748.745,-253.073 757.486,-253.073 765.481,-253.073"/>
<polygon fill="black" stroke="black" points="765.509,-256.573 775.509,-253.073 765.509,-249.573 765.509,-256.573"/>
</g>
<!-- &#45;8816983995703664262 -->
<g id="node16" class="node"><title>&#45;8816983995703664262</title>
<polygon fill="none" stroke="black" points="557.918,-340.073 483.503,-340.073 483.503,-304.073 557.918,-304.073 557.918,-340.073"/>
<text text-anchor="middle" x="520.711" y="-317.873" font-family="Times,serif" font-size="14.00">(&#39;fit&#45;#1&#39;, 1)</text>
</g>
<!-- &#45;8816983995703664262&#45;&gt;&#45;1923155886244659043 -->
<g id="edge14" class="edge"><title>&#45;8816983995703664262&#45;&gt;&#45;1923155886244659043</title>
<path fill="none" stroke="black" d="M558.091,-304.661C568.36,-299.747 579.921,-294.214 591.56,-288.643"/>
<polygon fill="black" stroke="black" points="593.379,-291.653 600.888,-284.179 590.357,-285.339 593.379,-291.653"/>
</g>
<!-- &#45;8816983995704746787 -->
<g id="node17" class="node"><title>&#45;8816983995704746787</title>
<polygon fill="none" stroke="black" points="557.918,-202.073 483.503,-202.073 483.503,-166.073 557.918,-166.073 557.918,-202.073"/>
<text text-anchor="middle" x="520.711" y="-179.873" font-family="Times,serif" font-size="14.00">(&#39;fit&#45;#1&#39;, 0)</text>
</g>
<!-- &#45;8816983995704746787&#45;&gt;&#45;1923155886244659043 -->
<g id="edge16" class="edge"><title>&#45;8816983995704746787&#45;&gt;&#45;1923155886244659043</title>
<path fill="none" stroke="black" d="M558.091,-201.484C568.36,-206.399 579.921,-211.932 591.56,-217.502"/>
<polygon fill="black" stroke="black" points="590.357,-220.806 600.888,-221.966 593.379,-214.492 590.357,-220.806"/>
</g>
<!-- &#45;5253868055788713783 -->
<g id="node18" class="node"><title>&#45;5253868055788713783</title>
<polygon fill="none" stroke="black" points="360.441,-163.073 268.874,-163.073 268.874,-127.073 360.441,-127.073 360.441,-163.073"/>
<text text-anchor="middle" x="314.658" y="-140.873" font-family="Times,serif" font-size="14.00">(&#39;array&#45;#3&#39;, 0)</text>
</g>
<!-- &#45;5253868055788713783&#45;&gt;4957002577713076494 -->
<g id="edge26" class="edge"><title>&#45;5253868055788713783&#45;&gt;4957002577713076494</title>
<path fill="none" stroke="black" d="M360.537,-154.56C371.776,-156.936 383.573,-159.43 393.931,-161.62"/>
<polygon fill="black" stroke="black" points="393.226,-165.048 403.734,-163.692 394.674,-158.2 393.226,-165.048"/>
</g>
<!-- 9108544290521191842&#45;&gt;&#45;5253868055788713783 -->
<g id="edge17" class="edge"><title>9108544290521191842&#45;&gt;&#45;5253868055788713783</title>
<path fill="none" stroke="black" d="M216.628,-205.886C229.93,-194.876 246.188,-182.195 261.766,-172.073 263.704,-170.814 265.707,-169.566 267.748,-168.336"/>
<polygon fill="black" stroke="black" points="269.942,-171.111 276.861,-163.088 266.449,-165.045 269.942,-171.111"/>
</g>
<!-- &#45;6900377261023204247&#45;&gt;&#45;8816983995703664262 -->
<g id="edge19" class="edge"><title>&#45;6900377261023204247&#45;&gt;&#45;8816983995703664262</title>
<path fill="none" stroke="black" d="M447.15,-334.522C454.953,-333.183 464.176,-331.601 473.383,-330.021"/>
<polygon fill="black" stroke="black" points="474.036,-333.46 483.3,-328.32 472.852,-326.561 474.036,-333.46"/>
</g>
<!-- 9117160821780444091 -->
<g id="node21" class="node"><title>9117160821780444091</title>
<polygon fill="none" stroke="black" points="367.441,-83.0726 261.875,-83.0726 261.875,-47.0726 367.441,-47.0726 367.441,-83.0726"/>
<text text-anchor="middle" x="314.658" y="-60.8726" font-family="Times,serif" font-size="14.00">(&#39;array&#45;#0&#39;, 0, 0)</text>
</g>
<!-- 9117160821780444091&#45;&gt;4957002577713076494 -->
<g id="edge28" class="edge"><title>9117160821780444091&#45;&gt;4957002577713076494</title>
<path fill="none" stroke="black" d="M334.858,-83.2499C353.491,-100.891 381.78,-127.673 401.572,-146.41"/>
<polygon fill="black" stroke="black" points="399.294,-149.073 408.962,-153.407 404.107,-143.99 399.294,-149.073"/>
</g>
<!-- &#45;901722574920021824&#45;&gt;9117160821780444091 -->
<g id="edge23" class="edge"><title>&#45;901722574920021824&#45;&gt;9117160821780444091</title>
<path fill="none" stroke="black" d="M225.146,-46.8031C233.561,-48.54 242.707,-50.4279 251.822,-52.3092"/>
<polygon fill="black" stroke="black" points="251.162,-55.7468 261.664,-54.3406 252.578,-48.8913 251.162,-55.7468"/>
</g>
<!-- 4957002577713076494&#45;&gt;&#45;8816983995704746787 -->
<g id="edge25" class="edge"><title>4957002577713076494&#45;&gt;&#45;8816983995704746787</title>
<path fill="none" stroke="black" d="M447.15,-171.624C454.953,-172.962 464.176,-174.545 473.383,-176.124"/>
<polygon fill="black" stroke="black" points="472.852,-179.584 483.3,-177.826 474.036,-172.685 472.852,-179.584"/>
</g>
</g>
</svg>
