<?xml version="1.0" encoding="UTF-8" standalone="no"?>
<!DOCTYPE svg PUBLIC "-//W3C//DTD SVG 1.1//EN"
 "http://www.w3.org/Graphics/SVG/1.1/DTD/svg11.dtd">
<!-- Generated by graphviz version 2.38.0 (20140413.2041)
 -->
<!-- Title: %3 Pages: 1 -->
<svg width="1245pt" height="478pt"
 viewBox="0.00 0.00 1245.38 478.15" xmlns="http://www.w3.org/2000/svg" xmlns:xlink="http://www.w3.org/1999/xlink">
<g id="graph0" class="graph" transform="scale(1 1) rotate(0) translate(4 474.145)">
<title>%3</title>
<polygon fill="white" stroke="none" points="-4,4 -4,-474.145 1241.38,-474.145 1241.38,4 -4,4"/>
<!-- &#45;4187874792511278367 -->
<g id="node1" class="node"><title>&#45;4187874792511278367</title>
<polygon fill="none" stroke="black" points="1237.62,-284.073 1119.68,-284.073 1119.68,-248.073 1237.62,-248.073 1237.62,-284.073"/>
<text text-anchor="middle" x="1178.65" y="-261.873" font-family="Times,serif" font-size="14.00">(&#39;partial_fit&#45;#0&#39;, 2)</text>
</g>
<!-- 8280292808975264762 -->
<g id="node2" class="node"><title>8280292808975264762</title>
<ellipse fill="none" stroke="black" cx="1035.01" cy="-266.073" rx="48.8273" ry="48.8273"/>
<text text-anchor="middle" x="1035.01" y="-261.873" font-family="Times,serif" font-size="14.00">_partial_fit</text>
</g>
<!-- 8280292808975264762&#45;&gt;&#45;4187874792511278367 -->
<g id="edge1" class="edge"><title>8280292808975264762&#45;&gt;&#45;4187874792511278367</title>
<path fill="none" stroke="black" d="M1083.96,-266.073C1092.15,-266.073 1100.8,-266.073 1109.4,-266.073"/>
<polygon fill="black" stroke="black" points="1109.44,-269.573 1119.44,-266.073 1109.44,-262.573 1109.44,-269.573"/>
</g>
<!-- 9117163344174441737 -->
<g id="node3" class="node"><title>9117163344174441737</title>
<polygon fill="none" stroke="black" points="509.225,-448.073 403.658,-448.073 403.658,-412.073 509.225,-412.073 509.225,-448.073"/>
<text text-anchor="middle" x="456.441" y="-425.873" font-family="Times,serif" font-size="14.00">(&#39;array&#45;#1&#39;, 2, 0)</text>
</g>
<!-- 9117163344174441737&#45;&gt;8280292808975264762 -->
<g id="edge2" class="edge"><title>9117163344174441737&#45;&gt;8280292808975264762</title>
<path fill="none" stroke="black" d="M509.415,-416.354C599.472,-392.419 790.224,-341 950.092,-293.073 959.339,-290.3 969.125,-287.254 978.622,-284.239"/>
<polygon fill="black" stroke="black" points="979.921,-287.498 988.38,-281.119 977.789,-280.831 979.921,-287.498"/>
</g>
<!-- &#45;4187874792512360892 -->
<g id="node4" class="node"><title>&#45;4187874792512360892</title>
<polygon fill="none" stroke="black" points="950.325,-284.073 832.392,-284.073 832.392,-248.073 950.325,-248.073 950.325,-284.073"/>
<text text-anchor="middle" x="891.359" y="-261.873" font-family="Times,serif" font-size="14.00">(&#39;partial_fit&#45;#0&#39;, 1)</text>
</g>
<!-- &#45;4187874792512360892&#45;&gt;8280292808975264762 -->
<g id="edge3" class="edge"><title>&#45;4187874792512360892&#45;&gt;8280292808975264762</title>
<path fill="none" stroke="black" d="M950.38,-266.073C958.745,-266.073 967.356,-266.073 975.726,-266.073"/>
<polygon fill="black" stroke="black" points="975.783,-269.573 985.783,-266.073 975.783,-262.573 975.783,-269.573"/>
</g>
<!-- &#45;5253868055790878833 -->
<g id="node5" class="node"><title>&#45;5253868055790878833</title>
<polygon fill="none" stroke="black" points="793.496,-130.073 701.929,-130.073 701.929,-94.0726 793.496,-94.0726 793.496,-130.073"/>
<text text-anchor="middle" x="747.712" y="-107.873" font-family="Times,serif" font-size="14.00">(&#39;array&#45;#2&#39;, 2)</text>
</g>
<!-- &#45;5253868055790878833&#45;&gt;8280292808975264762 -->
<g id="edge4" class="edge"><title>&#45;5253868055790878833&#45;&gt;8280292808975264762</title>
<path fill="none" stroke="black" d="M782.278,-130.191C831.632,-156.833 924.201,-206.801 982.283,-238.153"/>
<polygon fill="black" stroke="black" points="980.835,-241.349 991.297,-243.019 984.16,-235.189 980.835,-241.349"/>
</g>
<!-- 9117162082977442914 -->
<g id="node6" class="node"><title>9117162082977442914</title>
<polygon fill="none" stroke="black" points="656.849,-284.073 551.282,-284.073 551.282,-248.073 656.849,-248.073 656.849,-284.073"/>
<text text-anchor="middle" x="604.066" y="-261.873" font-family="Times,serif" font-size="14.00">(&#39;array&#45;#1&#39;, 1, 0)</text>
</g>
<!-- 8500891140952969887 -->
<g id="node9" class="node"><title>8500891140952969887</title>
<ellipse fill="none" stroke="black" cx="747.712" cy="-266.073" rx="48.8273" ry="48.8273"/>
<text text-anchor="middle" x="747.712" y="-261.873" font-family="Times,serif" font-size="14.00">_partial_fit</text>
</g>
<!-- 9117162082977442914&#45;&gt;8500891140952969887 -->
<g id="edge8" class="edge"><title>9117162082977442914&#45;&gt;8500891140952969887</title>
<path fill="none" stroke="black" d="M657.005,-266.073C667.191,-266.073 677.938,-266.073 688.318,-266.073"/>
<polygon fill="black" stroke="black" points="688.541,-269.573 698.541,-266.073 688.541,-262.573 688.541,-269.573"/>
</g>
<!-- 5886541450004956945 -->
<g id="node7" class="node"><title>5886541450004956945</title>
<ellipse fill="none" stroke="black" cx="186.694" cy="-269.073" rx="39.1454" ry="39.1454"/>
<text text-anchor="middle" x="186.694" y="-264.873" font-family="Times,serif" font-size="14.00">getarray</text>
</g>
<!-- 5886541450004956945&#45;&gt;9117162082977442914 -->
<g id="edge5" class="edge"><title>5886541450004956945&#45;&gt;9117162082977442914</title>
<path fill="none" stroke="black" d="M226.026,-268.796C297.989,-268.276 453.888,-267.15 540.996,-266.521"/>
<polygon fill="black" stroke="black" points="541.036,-270.021 551.01,-266.449 540.985,-263.021 541.036,-270.021"/>
</g>
<!-- 3641472394376837671 -->
<g id="node8" class="node"><title>3641472394376837671</title>
<polygon fill="none" stroke="black" points="111.432,-383.073 0.188812,-383.073 0.188812,-347.073 111.432,-347.073 111.432,-383.073"/>
<text text-anchor="middle" x="55.8105" y="-360.873" font-family="Times,serif" font-size="14.00">array&#45;original&#45;#1</text>
</g>
<!-- 3641472394376837671&#45;&gt;5886541450004956945 -->
<g id="edge6" class="edge"><title>3641472394376837671&#45;&gt;5886541450004956945</title>
<path fill="none" stroke="black" d="M81.0525,-347.016C99.4633,-333.302 125.163,-314.16 146.485,-298.277"/>
<polygon fill="black" stroke="black" points="148.789,-300.926 154.718,-292.145 144.607,-295.312 148.789,-300.926"/>
</g>
<!-- 3459600442441635170 -->
<g id="node14" class="node"><title>3459600442441635170</title>
<ellipse fill="none" stroke="black" cx="314.658" cy="-431.073" rx="39.1454" ry="39.1454"/>
<text text-anchor="middle" x="314.658" y="-426.873" font-family="Times,serif" font-size="14.00">getarray</text>
</g>
<!-- 3641472394376837671&#45;&gt;3459600442441635170 -->
<g id="edge14" class="edge"><title>3641472394376837671&#45;&gt;3459600442441635170</title>
<path fill="none" stroke="black" d="M84.2459,-383.097C101.673,-393.635 125.113,-406.181 147.621,-413.073 186.063,-424.843 231.571,-429.143 265.213,-430.613"/>
<polygon fill="black" stroke="black" points="265.13,-434.112 275.252,-430.983 265.388,-427.117 265.13,-434.112"/>
</g>
<!-- &#45;901722574920021824 -->
<g id="node20" class="node"><title>&#45;901722574920021824</title>
<ellipse fill="none" stroke="black" cx="186.694" cy="-365.073" rx="39.1454" ry="39.1454"/>
<text text-anchor="middle" x="186.694" y="-360.873" font-family="Times,serif" font-size="14.00">getarray</text>
</g>
<!-- 3641472394376837671&#45;&gt;&#45;901722574920021824 -->
<g id="edge23" class="edge"><title>3641472394376837671&#45;&gt;&#45;901722574920021824</title>
<path fill="none" stroke="black" d="M111.469,-365.073C120.053,-365.073 128.875,-365.073 137.305,-365.073"/>
<polygon fill="black" stroke="black" points="137.352,-368.573 147.352,-365.073 137.352,-361.573 137.352,-368.573"/>
</g>
<!-- 8500891140952969887&#45;&gt;&#45;4187874792512360892 -->
<g id="edge7" class="edge"><title>8500891140952969887&#45;&gt;&#45;4187874792512360892</title>
<path fill="none" stroke="black" d="M796.667,-266.073C804.859,-266.073 813.507,-266.073 822.105,-266.073"/>
<polygon fill="black" stroke="black" points="822.145,-269.573 832.145,-266.073 822.145,-262.573 822.145,-269.573"/>
</g>
<!-- &#45;5253868055787631258 -->
<g id="node10" class="node"><title>&#45;5253868055787631258</title>
<polygon fill="none" stroke="black" points="502.225,-185.073 410.658,-185.073 410.658,-149.073 502.225,-149.073 502.225,-185.073"/>
<text text-anchor="middle" x="456.441" y="-162.873" font-family="Times,serif" font-size="14.00">(&#39;array&#45;#2&#39;, 1)</text>
</g>
<!-- &#45;5253868055787631258&#45;&gt;8500891140952969887 -->
<g id="edge9" class="edge"><title>&#45;5253868055787631258&#45;&gt;8500891140952969887</title>
<path fill="none" stroke="black" d="M502.322,-182.433C553.372,-199.904 636.746,-228.438 691.675,-247.237"/>
<polygon fill="black" stroke="black" points="690.654,-250.586 701.248,-250.513 692.92,-243.964 690.654,-250.586"/>
</g>
<!-- &#45;4187874792513443417 -->
<g id="node11" class="node"><title>&#45;4187874792513443417</title>
<polygon fill="none" stroke="black" points="663.032,-349.073 545.099,-349.073 545.099,-313.073 663.032,-313.073 663.032,-349.073"/>
<text text-anchor="middle" x="604.066" y="-326.873" font-family="Times,serif" font-size="14.00">(&#39;partial_fit&#45;#0&#39;, 0)</text>
</g>
<!-- &#45;4187874792513443417&#45;&gt;8500891140952969887 -->
<g id="edge10" class="edge"><title>&#45;4187874792513443417&#45;&gt;8500891140952969887</title>
<path fill="none" stroke="black" d="M644.522,-312.967C659.713,-305.995 677.318,-297.917 693.59,-290.45"/>
<polygon fill="black" stroke="black" points="695.359,-293.489 702.988,-286.137 692.44,-287.127 695.359,-293.489"/>
</g>
<!-- 4434922648978489965 -->
<g id="node12" class="node"><title>4434922648978489965</title>
<ellipse fill="none" stroke="black" cx="314.658" cy="-114.073" rx="39.1454" ry="39.1454"/>
<text text-anchor="middle" x="314.658" y="-109.873" font-family="Times,serif" font-size="14.00">getarray</text>
</g>
<!-- 4434922648978489965&#45;&gt;&#45;5253868055787631258 -->
<g id="edge11" class="edge"><title>4434922648978489965&#45;&gt;&#45;5253868055787631258</title>
<path fill="none" stroke="black" d="M351.656,-127.721C366.667,-133.413 384.432,-140.149 400.981,-146.424"/>
<polygon fill="black" stroke="black" points="399.964,-149.781 410.555,-150.054 402.445,-143.236 399.964,-149.781"/>
</g>
<!-- &#45;6096113946391422531 -->
<g id="node13" class="node"><title>&#45;6096113946391422531</title>
<polygon fill="none" stroke="black" points="111.432,-124.073 0.188812,-124.073 0.188812,-88.0726 111.432,-88.0726 111.432,-124.073"/>
<text text-anchor="middle" x="55.8105" y="-101.873" font-family="Times,serif" font-size="14.00">array&#45;original&#45;#2</text>
</g>
<!-- &#45;6096113946391422531&#45;&gt;4434922648978489965 -->
<g id="edge12" class="edge"><title>&#45;6096113946391422531&#45;&gt;4434922648978489965</title>
<path fill="none" stroke="black" d="M111.596,-107.779C157.152,-109.198 221.381,-111.198 265.113,-112.561"/>
<polygon fill="black" stroke="black" points="265.111,-116.062 275.215,-112.875 265.329,-109.066 265.111,-116.062"/>
</g>
<!-- &#45;5471802076868658324 -->
<g id="node18" class="node"><title>&#45;5471802076868658324</title>
<ellipse fill="none" stroke="black" cx="186.694" cy="-39.0726" rx="39.1454" ry="39.1454"/>
<text text-anchor="middle" x="186.694" y="-34.8726" font-family="Times,serif" font-size="14.00">getarray</text>
</g>
<!-- &#45;6096113946391422531&#45;&gt;&#45;5471802076868658324 -->
<g id="edge19" class="edge"><title>&#45;6096113946391422531&#45;&gt;&#45;5471802076868658324</title>
<path fill="none" stroke="black" d="M91.6882,-87.9415C107.413,-79.7667 126.137,-70.033 142.72,-61.4125"/>
<polygon fill="black" stroke="black" points="144.421,-64.4728 151.68,-56.7548 141.193,-58.2619 144.421,-64.4728"/>
</g>
<!-- 9108544290521191842 -->
<g id="node19" class="node"><title>9108544290521191842</title>
<ellipse fill="none" stroke="black" cx="186.694" cy="-173.073" rx="39.1454" ry="39.1454"/>
<text text-anchor="middle" x="186.694" y="-168.873" font-family="Times,serif" font-size="14.00">getarray</text>
</g>
<!-- &#45;6096113946391422531&#45;&gt;9108544290521191842 -->
<g id="edge21" class="edge"><title>&#45;6096113946391422531&#45;&gt;9108544290521191842</title>
<path fill="none" stroke="black" d="M91.6882,-124.204C107.413,-132.379 126.137,-142.112 142.72,-150.733"/>
<polygon fill="black" stroke="black" points="141.193,-153.883 151.68,-155.39 144.421,-147.672 141.193,-153.883"/>
</g>
<!-- 3459600442441635170&#45;&gt;9117163344174441737 -->
<g id="edge13" class="edge"><title>3459600442441635170&#45;&gt;9117163344174441737</title>
<path fill="none" stroke="black" d="M353.854,-430.799C366.029,-430.712 379.831,-430.614 393.25,-430.518"/>
<polygon fill="black" stroke="black" points="393.429,-434.016 403.403,-430.445 393.379,-427.017 393.429,-434.016"/>
</g>
<!-- &#45;8927729418560486204 -->
<g id="node15" class="node"><title>&#45;8927729418560486204</title>
<ellipse fill="none" stroke="black" cx="456.441" cy="-343.073" rx="48.8273" ry="48.8273"/>
<text text-anchor="middle" x="456.441" y="-338.873" font-family="Times,serif" font-size="14.00">_partial_fit</text>
</g>
<!-- &#45;8927729418560486204&#45;&gt;&#45;4187874792513443417 -->
<g id="edge15" class="edge"><title>&#45;8927729418560486204&#45;&gt;&#45;4187874792513443417</title>
<path fill="none" stroke="black" d="M505.528,-339.11C514.935,-338.335 524.968,-337.508 534.885,-336.691"/>
<polygon fill="black" stroke="black" points="535.469,-340.155 545.147,-335.845 534.894,-333.178 535.469,-340.155"/>
</g>
<!-- &#45;5253868055788713783 -->
<g id="node16" class="node"><title>&#45;5253868055788713783</title>
<polygon fill="none" stroke="black" points="360.441,-217.073 268.874,-217.073 268.874,-181.073 360.441,-181.073 360.441,-217.073"/>
<text text-anchor="middle" x="314.658" y="-194.873" font-family="Times,serif" font-size="14.00">(&#39;array&#45;#2&#39;, 0)</text>
</g>
<!-- &#45;5253868055788713783&#45;&gt;&#45;8927729418560486204 -->
<g id="edge16" class="edge"><title>&#45;5253868055788713783&#45;&gt;&#45;8927729418560486204</title>
<path fill="none" stroke="black" d="M333.362,-217.31C353.66,-238.221 387.604,-273.189 414.554,-300.952"/>
<polygon fill="black" stroke="black" points="412.12,-303.47 421.597,-308.207 417.143,-298.594 412.12,-303.47"/>
</g>
<!-- 9117160821780444091 -->
<g id="node17" class="node"><title>9117160821780444091</title>
<polygon fill="none" stroke="black" points="367.441,-366.073 261.875,-366.073 261.875,-330.073 367.441,-330.073 367.441,-366.073"/>
<text text-anchor="middle" x="314.658" y="-343.873" font-family="Times,serif" font-size="14.00">(&#39;array&#45;#1&#39;, 0, 0)</text>
</g>
<!-- 9117160821780444091&#45;&gt;&#45;8927729418560486204 -->
<g id="edge17" class="edge"><title>9117160821780444091&#45;&gt;&#45;8927729418560486204</title>
<path fill="none" stroke="black" d="M367.708,-346.211C377.387,-345.865 387.554,-345.501 397.399,-345.149"/>
<polygon fill="black" stroke="black" points="397.638,-348.643 407.507,-344.787 397.388,-341.647 397.638,-348.643"/>
</g>
<!-- &#45;5471802076868658324&#45;&gt;&#45;5253868055790878833 -->
<g id="edge18" class="edge"><title>&#45;5471802076868658324&#45;&gt;&#45;5253868055790878833</title>
<path fill="none" stroke="black" d="M225.678,-44.0328C322.429,-56.6672 578.474,-90.103 691.621,-104.878"/>
<polygon fill="black" stroke="black" points="691.422,-108.382 701.791,-106.207 692.328,-101.441 691.422,-108.382"/>
</g>
<!-- 9108544290521191842&#45;&gt;&#45;5253868055788713783 -->
<g id="edge20" class="edge"><title>9108544290521191842&#45;&gt;&#45;5253868055788713783</title>
<path fill="none" stroke="black" d="M225.146,-180.803C235.691,-182.98 247.385,-185.393 258.726,-187.734"/>
<polygon fill="black" stroke="black" points="258.062,-191.171 268.563,-189.765 259.477,-184.315 258.062,-191.171"/>
</g>
<!-- &#45;901722574920021824&#45;&gt;9117160821780444091 -->
<g id="edge22" class="edge"><title>&#45;901722574920021824&#45;&gt;9117160821780444091</title>
<path fill="none" stroke="black" d="M225.487,-359.972C233.701,-358.864 242.599,-357.663 251.476,-356.465"/>
<polygon fill="black" stroke="black" points="252.01,-359.924 261.452,-355.118 251.073,-352.987 252.01,-359.924"/>
</g>
</g>
</svg>
