<?xml version="1.0" encoding="UTF-8" standalone="no"?>
<!DOCTYPE svg PUBLIC "-//W3C//DTD SVG 1.1//EN"
 "http://www.w3.org/Graphics/SVG/1.1/DTD/svg11.dtd">
<!-- Generated by graphviz version 2.38.0 (20140413.2041)
 -->
<!-- Title: %3 Pages: 1 -->
<svg width="444pt" height="338pt"
 viewBox="0.00 0.00 443.83 337.82" xmlns="http://www.w3.org/2000/svg" xmlns:xlink="http://www.w3.org/1999/xlink">
<g id="graph0" class="graph" transform="scale(1 1) rotate(0) translate(4 333.819)">
<title>%3</title>
<polygon fill="white" stroke="none" points="-4,4 -4,-333.819 439.826,-333.819 439.826,4 -4,4"/>
<!-- 9106966955740807251 -->
<g id="node1" class="node"><title>9106966955740807251</title>
<polygon fill="none" stroke="black" points="436.057,-66.9093 318.137,-66.9093 318.137,-30.9093 436.057,-30.9093 436.057,-66.9093"/>
<text text-anchor="middle" x="377.097" y="-44.7093" font-family="Times,serif" font-size="14.00">(&#39;transform&#45;#0&#39;, 2)</text>
</g>
<!-- &#45;346712755627520616 -->
<g id="node2" class="node"><title>&#45;346712755627520616</title>
<ellipse fill="none" stroke="black" cx="233.458" cy="-48.9093" rx="48.8187" ry="48.8187"/>
<text text-anchor="middle" x="233.458" y="-44.7093" font-family="Times,serif" font-size="14.00">_transform</text>
</g>
<!-- &#45;346712755627520616&#45;&gt;9106966955740807251 -->
<g id="edge1" class="edge"><title>&#45;346712755627520616&#45;&gt;9106966955740807251</title>
<path fill="none" stroke="black" d="M282.411,-48.9093C290.602,-48.9093 299.25,-48.9093 307.847,-48.9093"/>
<polygon fill="black" stroke="black" points="307.887,-52.4094 317.887,-48.9093 307.887,-45.4094 307.887,-52.4094"/>
</g>
<!-- &#45;2337497116097763281 -->
<g id="node3" class="node"><title>&#45;2337497116097763281</title>
<polygon fill="none" stroke="black" points="148.324,-66.9093 0.224903,-66.9093 0.224903,-30.9093 148.324,-30.9093 148.324,-66.9093"/>
<text text-anchor="middle" x="74.2744" y="-44.7093" font-family="Times,serif" font-size="14.00">(&#39;from_sequence&#45;#1&#39;, 2)</text>
</g>
<!-- &#45;2337497116097763281&#45;&gt;&#45;346712755627520616 -->
<g id="edge2" class="edge"><title>&#45;2337497116097763281&#45;&gt;&#45;346712755627520616</title>
<path fill="none" stroke="black" d="M148.344,-48.9093C157.008,-48.9093 165.761,-48.9093 174.181,-48.9093"/>
<polygon fill="black" stroke="black" points="174.256,-52.4094 184.256,-48.9093 174.256,-45.4094 174.256,-52.4094"/>
</g>
<!-- &#45;2337497116094515706 -->
<g id="node4" class="node"><title>&#45;2337497116094515706</title>
<polygon fill="none" stroke="black" points="148.324,-182.909 0.224903,-182.909 0.224903,-146.909 148.324,-146.909 148.324,-182.909"/>
<text text-anchor="middle" x="74.2744" y="-160.709" font-family="Times,serif" font-size="14.00">(&#39;from_sequence&#45;#1&#39;, 1)</text>
</g>
<!-- &#45;2475429222624469991 -->
<g id="node7" class="node"><title>&#45;2475429222624469991</title>
<ellipse fill="none" stroke="black" cx="233.458" cy="-164.909" rx="48.8187" ry="48.8187"/>
<text text-anchor="middle" x="233.458" y="-160.709" font-family="Times,serif" font-size="14.00">_transform</text>
</g>
<!-- &#45;2337497116094515706&#45;&gt;&#45;2475429222624469991 -->
<g id="edge4" class="edge"><title>&#45;2337497116094515706&#45;&gt;&#45;2475429222624469991</title>
<path fill="none" stroke="black" d="M148.344,-164.909C157.008,-164.909 165.761,-164.909 174.181,-164.909"/>
<polygon fill="black" stroke="black" points="174.256,-168.409 184.256,-164.909 174.256,-161.409 174.256,-168.409"/>
</g>
<!-- &#45;2337497116095598231 -->
<g id="node5" class="node"><title>&#45;2337497116095598231</title>
<polygon fill="none" stroke="black" points="148.324,-298.909 0.224903,-298.909 0.224903,-262.909 148.324,-262.909 148.324,-298.909"/>
<text text-anchor="middle" x="74.2744" y="-276.709" font-family="Times,serif" font-size="14.00">(&#39;from_sequence&#45;#1&#39;, 0)</text>
</g>
<!-- &#45;3062844077772444866 -->
<g id="node9" class="node"><title>&#45;3062844077772444866</title>
<ellipse fill="none" stroke="black" cx="233.458" cy="-280.909" rx="48.8187" ry="48.8187"/>
<text text-anchor="middle" x="233.458" y="-276.709" font-family="Times,serif" font-size="14.00">_transform</text>
</g>
<!-- &#45;2337497116095598231&#45;&gt;&#45;3062844077772444866 -->
<g id="edge6" class="edge"><title>&#45;2337497116095598231&#45;&gt;&#45;3062844077772444866</title>
<path fill="none" stroke="black" d="M148.344,-280.909C157.008,-280.909 165.761,-280.909 174.181,-280.909"/>
<polygon fill="black" stroke="black" points="174.256,-284.409 184.256,-280.909 174.256,-277.409 174.256,-284.409"/>
</g>
<!-- 9106966955744054826 -->
<g id="node6" class="node"><title>9106966955744054826</title>
<polygon fill="none" stroke="black" points="436.057,-182.909 318.137,-182.909 318.137,-146.909 436.057,-146.909 436.057,-182.909"/>
<text text-anchor="middle" x="377.097" y="-160.709" font-family="Times,serif" font-size="14.00">(&#39;transform&#45;#0&#39;, 1)</text>
</g>
<!-- &#45;2475429222624469991&#45;&gt;9106966955744054826 -->
<g id="edge3" class="edge"><title>&#45;2475429222624469991&#45;&gt;9106966955744054826</title>
<path fill="none" stroke="black" d="M282.411,-164.909C290.602,-164.909 299.25,-164.909 307.847,-164.909"/>
<polygon fill="black" stroke="black" points="307.887,-168.409 317.887,-164.909 307.887,-161.409 307.887,-168.409"/>
</g>
<!-- 9106966955742972301 -->
<g id="node8" class="node"><title>9106966955742972301</title>
<polygon fill="none" stroke="black" points="436.057,-298.909 318.137,-298.909 318.137,-262.909 436.057,-262.909 436.057,-298.909"/>
<text text-anchor="middle" x="377.097" y="-276.709" font-family="Times,serif" font-size="14.00">(&#39;transform&#45;#0&#39;, 0)</text>
</g>
<!-- &#45;3062844077772444866&#45;&gt;9106966955742972301 -->
<g id="edge5" class="edge"><title>&#45;3062844077772444866&#45;&gt;9106966955742972301</title>
<path fill="none" stroke="black" d="M282.411,-280.909C290.602,-280.909 299.25,-280.909 307.847,-280.909"/>
<polygon fill="black" stroke="black" points="307.887,-284.409 317.887,-280.909 307.887,-277.409 307.887,-284.409"/>
</g>
</g>
</svg>
